# xmcd CD database file
#
# Track frame offsets:
#	150
#	19833
#	49239
#	79540
#	112724
#	150861
#	189612
#	219837
#	250300
#	276599
#
# Disc length: 4202 seconds
#
# Revision: 2
# Processed by: cddbd v1.5.1PL0 Copyright (c) Steve Scherf et al.
# Submitted via: CDex 1.51
#
DISCID=7a10680a
DTITLE=PING - PING REMIXED VOL.1
DYEAR=2002
DGENRE=Rock
TTITLE0=STC/discord - ECM -
TTITLE1=BMK/satellite (genocide mix)
TTITLE2=aym/beatgirl (flower garden mix)
TTITLE3=Yusuke Noda/conga beat
TTITLE4=Nacky/brown water (straight brass mix)
TTITLE5=908/E.O.M.Minimalize
TTITLE6=STC/the four elements - Eagle Drivers edit -
TTITLE7=Nacky/rocket (in the flare)
TTITLE8=aym/夜桜 (在原業平 mix)
TTITLE9=Nacky/347rmx (lozical antique)
EXTD=YEAR: 2002
EXTT0=
EXTT1=
EXTT2=
EXTT3=
EXTT4=
EXTT5=
EXTT6=
EXTT7=
EXTT8=
EXTT9=
PLAYORDER=
